<?xml version="1.0" standalone="no"?>
<!DOCTYPE svg PUBLIC "-//W3C//DTD SVG 20010904//EN"
 "http://www.w3.org/TR/2001/REC-SVG-20010904/DTD/svg10.dtd">
<svg version="1.0" xmlns="http://www.w3.org/2000/svg"
 width="1280.000000pt" height="282.000000pt" viewBox="0 0 1280.000000 282.000000"
 preserveAspectRatio="xMidYMid meet">

<g transform="translate(0.000000,282.000000) scale(0.100000,-0.100000)"
fill="#000000" stroke="none">
<path d="M4167 2565 c-118 -30 -194 -137 -204 -286 l-6 -79 134 -232 c133
-232 265 -458 272 -465 2 -2 5 114 5 257 1 143 4 265 7 270 4 6 137 10 358 10
307 0 348 2 331 14 -19 14 -19 15 4 36 12 11 22 30 22 41 0 11 5 29 10 39 8
15 4 29 -20 66 -54 86 -50 151 16 251 53 82 52 83 -78 85 -300 6 -307 6 -258
-25 34 -22 35 -28 9 -113 -11 -37 -10 -49 10 -105 36 -98 38 -135 10 -166 -28
-30 -94 -62 -127 -63 -46 0 -138 62 -254 172 -34 31 -38 41 -38 83 0 60 54
153 107 186 20 13 32 24 27 25 -33 9 -301 8 -337 -1z"/>
<path d="M5457 2478 c-10 -136 -8 -726 2 -732 4 -3 11 95 14 217 4 172 9 233
22 270 16 45 16 49 0 67 -13 14 -17 45 -21 141 -3 68 -6 124 -8 126 -2 2 -6
-38 -9 -89z"/>
<path d="M5570 2562 c0 -20 93 -92 133 -103 44 -12 61 -3 55 27 -6 35 -188
108 -188 76z"/>
<path d="M3040 2360 c-3 -14 -5 -416 -5 -895 l0 -870 26 -56 c35 -74 81 -125
143 -157 42 -21 68 -27 148 -30 l98 -4 0 638 c-1 352 -1 645 0 652 1 41 36
-11 120 -180 249 -502 503 -943 617 -1069 l35 -39 477 0 476 0 4 40 c5 73 3
184 -4 224 -5 23 -3 60 5 90 10 43 9 60 -4 107 l-17 56 -381 6 c-352 5 -382 7
-399 24 -15 16 -137 229 -237 416 -40 73 -123 220 -129 227 -2 2 -14 -9 -27
-24 -17 -22 -27 -27 -44 -22 -27 9 -28 30 -2 63 28 36 25 66 -14 142 -56 109
-151 256 -168 259 -9 2 -35 -9 -58 -24 -50 -33 -70 -26 -84 29 -12 49 4 83 43
92 38 8 46 30 18 55 -39 37 -67 37 -96 1 -44 -53 -96 -39 -110 31 l-6 31 -80
2 c-44 1 -90 -2 -102 -6 -13 -5 -33 -32 -50 -66 -21 -43 -35 -59 -55 -64 -15
-4 -42 -19 -61 -33 -66 -51 -66 -50 -69 177 -2 111 -5 191 -8 177z m354 -1096
c23 -9 20 -34 -3 -34 -22 0 -35 15 -26 30 7 12 8 12 29 4z m-70 -87 c26 -19
17 -51 -16 -55 -20 -2 -31 4 -43 22 -9 14 -14 30 -10 36 9 14 48 13 69 -3z
m1294 -705 c4 -28 -40 -52 -66 -35 -24 15 -21 35 8 50 34 17 54 12 58 -15z"/>
<path d="M10280 1915 c-137 -39 -235 -137 -286 -287 -63 -185 -48 -486 33
-641 23 -46 93 -117 137 -139 154 -78 291 -78 445 2 78 40 181 177 181 239 0
21 -15 37 -71 80 -39 29 -75 49 -79 44 -4 -4 -15 -32 -25 -61 -38 -118 -115
-178 -225 -176 -77 1 -115 18 -163 74 -54 64 -71 138 -72 310 0 166 15 232 68
302 49 65 105 90 194 86 62 -3 78 -8 116 -35 l45 -31 5 26 c3 15 1 64 -5 110
-9 68 -15 85 -32 94 -34 18 -203 20 -266 3z"/>
<path d="M6258 1899 c-10 -5 -21 -26 -26 -47 -13 -55 -15 -988 -2 -1012 9 -16
21 -20 68 -20 97 0 90 -29 94 408 1 211 6 386 10 388 3 2 15 -19 26 -48 11
-29 86 -197 166 -373 172 -377 170 -375 280 -375 58 0 79 4 97 19 l24 19 3
287 c3 275 2 287 -18 320 -20 33 -20 36 -5 95 17 67 32 272 22 312 -8 31 -42
42 -103 32 -40 -6 -45 -9 -53 -43 -5 -20 -11 -181 -13 -358 -2 -178 -7 -322
-11 -320 -5 1 -25 41 -46 87 -47 105 -223 486 -258 557 -33 67 -66 83 -165 83
-40 0 -81 -5 -90 -11z"/>
<path d="M7233 1902 c-30 -19 -33 -70 -33 -556 0 -467 1 -494 18 -510 17 -14
47 -16 273 -14 l254 3 9 42 c5 24 5 57 -1 80 l-9 38 -177 3 -177 2 0 133 c0
193 -13 177 145 177 158 0 165 3 165 85 0 89 8 85 -161 85 l-149 0 0 119 c0
66 3 126 6 135 5 14 30 16 168 16 113 0 166 4 174 12 16 16 16 130 0 146 -14
14 -484 17 -505 4z"/>
<path d="M7851 1896 c-7 -8 -13 -44 -14 -81 -3 -91 5 -96 148 -94 l110 2 3
-438 c1 -303 6 -442 13 -452 14 -16 118 -18 154 -1 l25 11 0 431 c0 237 4 436
8 441 4 6 58 11 121 12 67 1 118 6 125 13 14 14 11 137 -5 156 -17 21 -671 21
-688 0z"/>
<path d="M8618 1899 c-10 -5 -18 -21 -18 -35 0 -33 60 -306 69 -317 4 -4 42 9
84 30 64 32 76 42 77 63 0 30 -40 233 -49 247 -9 14 -143 24 -163 12z"/>
<path d="M9144 1865 c-7 -19 -14 -46 -14 -61 0 -31 -2 -31 127 13 69 23 83 32
83 49 0 29 -17 34 -106 34 l-75 0 -15 -35z"/>
<path d="M9760 1860 c-11 -22 -33 -54 -49 -72 -16 -19 -36 -58 -45 -88 -19
-69 -116 -562 -116 -592 0 -25 -16 -56 -24 -47 -3 2 -21 79 -41 169 -20 91
-40 179 -46 197 l-10 31 -70 -46 c-69 -47 -69 -47 -66 -87 2 -22 26 -138 53
-258 39 -177 52 -221 68 -229 28 -15 184 -12 209 5 22 14 30 43 158 597 45
190 83 371 86 403 l6 57 -46 0 c-44 0 -48 -2 -67 -40z"/>
<path d="M12384 1877 c28 -23 29 -26 22 -85 -7 -58 -6 -62 13 -62 30 0 94 98
89 137 -3 28 -4 28 -78 31 l-75 3 29 -24z"/>
<path d="M5822 1828 c-16 -16 -15 -40 2 -64 21 -28 37 -7 29 39 -6 39 -12 44
-31 25z"/>
<path d="M4620 1438 l0 -268 403 0 402 1 -25 20 c-18 15 -32 19 -57 14 l-33
-6 0 49 c0 43 -5 56 -39 97 -46 56 -51 79 -50 230 1 61 1 116 0 123 -1 10 -26
12 -107 10 l-105 -3 -23 -57 c-44 -107 -190 -282 -269 -322 -58 -30 -71 -16
-75 77 -3 71 -1 77 27 109 17 19 72 58 123 87 84 47 128 82 128 100 0 4 -67 7
-150 7 l-150 -1 0 -267z"/>
<path d="M5797 1692 c-24 -26 -13 -103 19 -133 13 -12 24 -28 24 -36 0 -7 5
-13 10 -13 6 0 10 37 10 90 0 78 -2 91 -19 100 -25 13 -25 13 -44 -8z"/>
<path d="M1525 1502 c-99 -42 -133 -132 -88 -239 26 -63 138 -92 212 -55 107
53 114 205 13 272 -25 17 -51 30 -58 30 -7 0 -18 2 -26 4 -7 3 -31 -3 -53 -12z"/>
<path d="M5791 1435 c-28 -31 -51 -61 -51 -65 0 -16 -62 -80 -91 -96 -15 -7
-48 -14 -71 -14 -38 0 -49 -5 -83 -40 -21 -22 -46 -40 -55 -41 -10 0 -11 -2
-2 -6 9 -4 12 -96 12 -414 l0 -409 88 0 c168 0 238 40 292 167 31 72 34 87 38
206 l4 127 -26 0 c-42 0 -203 60 -231 86 -54 50 -17 161 55 164 54 3 110 27
152 65 l43 40 -3 135 c-2 74 -7 139 -11 143 -5 4 -31 -17 -60 -48z"/>
<path d="M12247 1196 c-32 -35 -57 -71 -57 -80 0 -24 128 -258 152 -278 14
-12 37 -18 73 -18 72 0 115 16 115 44 0 20 -187 356 -214 384 -10 11 -23 1
-69 -52z"/>
<path d="M9072 1189 c-29 -15 -56 -28 -60 -27 -11 1 -32 -44 -32 -69 0 -35
-20 -38 -32 -5 l-12 30 -32 -19 c-18 -10 -51 -23 -73 -29 -48 -13 -49 -18 -22
-134 25 -104 33 -111 129 -110 103 1 127 8 140 41 10 25 72 324 72 345 0 14
-22 7 -78 -23z"/>
<path d="M11940 960 l-85 -27 -3 -46 c-3 -39 0 -48 19 -57 27 -15 132 -9 153
9 16 14 20 71 7 121 l-6 26 -85 -26z"/>
<path d="M2140 943 c-13 -15 -12 -16 4 -10 10 4 25 7 34 7 15 0 15 2 2 10 -20
13 -22 12 -40 -7z"/>
<path d="M11581 935 c-30 -8 -63 -23 -75 -34 l-20 -21 20 -27 c17 -23 30 -29
72 -31 28 -2 65 1 84 6 29 8 33 12 32 41 -2 36 -28 82 -47 80 -6 -1 -36 -7
-66 -14z"/>
<path d="M2052 914 c-7 -8 -8 -14 -3 -14 10 0 25 19 20 25 -2 1 -10 -3 -17
-11z"/>
<path d="M2280 886 c0 -2 8 -10 18 -17 15 -13 16 -12 3 4 -13 16 -21 21 -21
13z"/>
<path d="M2283 833 c-15 -5 -17 -23 -4 -23 5 0 11 7 15 15 3 8 4 15 3 14 -1 0
-8 -3 -14 -6z"/>
<path d="M2050 790 c0 -5 5 -10 11 -10 5 0 7 5 4 10 -3 6 -8 10 -11 10 -2 0
-4 -4 -4 -10z"/>
<path d="M2290 739 c0 -11 4 -18 10 -14 5 3 7 12 3 20 -7 21 -13 19 -13 -6z"/>
<path d="M685 743 c-79 -20 -136 -108 -121 -188 10 -49 65 -109 117 -124 118
-36 232 78 199 198 -22 82 -112 135 -195 114z"/>
<path d="M2245 729 c-4 -6 -5 -12 -2 -15 2 -3 7 2 10 11 7 17 1 20 -8 4z"/>
<path d="M2040 696 c0 -2 7 -7 16 -10 8 -3 12 -2 9 4 -6 10 -25 14 -25 6z"/>
<path d="M2255 690 c-3 -6 1 -7 9 -4 18 7 21 14 7 14 -6 0 -13 -4 -16 -10z"/>
</g>
</svg>
